<svg width="270" height="82" viewBox="0 0 270 82" fill="none" xmlns="http://www.w3.org/2000/svg">
<g clip-path="url(#clip0_0_3)">
<path d="M58.0527 0H4.38134C1.96159 0 0 1.96159 0 4.38134V77.4949C0 79.9147 1.96159 81.8763 4.38134 81.8763H58.0527C60.4725 81.8763 62.4341 79.9147 62.4341 77.4949V4.38134C62.4341 1.96159 60.4725 0 58.0527 0Z" fill="#686D76"/>
<path d="M50.1116 0H39.9797C39.2235 0 38.6105 0.612998 38.6105 1.36917V29.8479C38.6105 30.604 39.2235 31.217 39.9797 31.217H50.1116C50.8677 31.217 51.4807 30.604 51.4807 29.8479V1.36917C51.4807 0.612998 50.8677 0 50.1116 0Z" fill="#D2D2D2"/>
<path d="M47.9209 0H37.789C37.0329 0 36.4199 0.612998 36.4199 1.36917V28.2049C36.4199 28.961 37.0329 29.574 37.789 29.574H47.9209C48.6771 29.574 49.2901 28.961 49.2901 28.2049V1.36917C49.2901 0.612998 48.6771 0 47.9209 0Z" fill="#EEEEEE"/>
<path d="M101.696 58.2499C101.696 64.6905 97.4738 67.9107 89.0288 67.9107H74.8826V33.5063H88.7331C92.2491 33.5063 94.96 34.3114 96.8659 35.9215C98.8047 37.5316 99.774 39.7004 99.774 42.4278C99.774 46.0424 98.1968 48.5562 95.0422 49.9692V50.117C99.4783 51.53 101.696 54.241 101.696 58.2499ZM79.3679 63.7211H88.5852C91.7726 63.7211 94.0235 63.2282 95.3379 62.2424C96.6852 61.2566 97.3588 59.86 97.3588 58.0527C97.3588 54.3067 94.4507 52.4337 88.6345 52.4337H79.3679V63.7211ZM79.3679 48.3919H87.5501C90.4746 48.3919 92.5284 47.899 93.7114 46.9132C94.8943 45.9274 95.4858 44.613 95.4858 42.97C95.4858 41.2941 94.845 39.9961 93.5635 39.0761C92.3148 38.156 90.5897 37.6959 88.388 37.6959H79.3679V48.3919ZM106.643 55.3418C106.643 51.4314 107.793 48.2769 110.093 45.8781C112.394 43.4793 115.433 42.2799 119.212 42.2799C123.024 42.2799 126.08 43.4793 128.38 45.8781C130.713 48.2769 131.88 51.4314 131.88 55.3418C131.88 59.2521 130.713 62.4067 128.38 64.8055C126.08 67.2043 123.024 68.4036 119.212 68.4036C115.433 68.4036 112.394 67.2043 110.093 64.8055C107.793 62.4067 106.643 59.2521 106.643 55.3418ZM113.544 62.0945C115.187 63.5732 117.093 64.3126 119.261 64.3126C121.43 64.3126 123.32 63.5732 124.93 62.0945C126.573 60.583 127.394 58.332 127.394 55.3418C127.394 52.3187 126.573 50.0677 124.93 48.589C123.32 47.1103 121.43 46.371 119.261 46.371C117.093 46.371 115.187 47.1103 113.544 48.589C111.934 50.0677 111.129 52.3187 111.129 55.3418C111.129 58.332 111.934 60.583 113.544 62.0945ZM136.631 55.3418C136.631 51.4314 137.781 48.2769 140.081 45.8781C142.381 43.4793 145.421 42.2799 149.2 42.2799C153.012 42.2799 156.068 43.4793 158.368 45.8781C160.701 48.2769 161.867 51.4314 161.867 55.3418C161.867 59.2521 160.701 62.4067 158.368 64.8055C156.068 67.2043 153.012 68.4036 149.2 68.4036C145.421 68.4036 142.381 67.2043 140.081 64.8055C137.781 62.4067 136.631 59.2521 136.631 55.3418ZM143.532 62.0945C145.175 63.5732 147.08 64.3126 149.249 64.3126C151.418 64.3126 153.307 63.5732 154.918 62.0945C156.561 60.583 157.382 58.332 157.382 55.3418C157.382 52.3187 156.561 50.0677 154.918 48.589C153.307 47.1103 151.418 46.371 149.249 46.371C147.08 46.371 145.175 47.1103 143.532 48.589C141.921 50.0677 141.116 52.3187 141.116 55.3418C141.116 58.332 141.921 60.583 143.532 62.0945ZM179.484 52.8773L190.82 67.9107H185.3L176.428 56.0318H176.28L172.632 59.6793V67.9107H168.147V31.929H172.632V53.9617H172.78L183.673 42.7728H189.687L179.484 52.8773ZM195.252 67.9107V42.7728H199.737V67.9107H195.252ZM199.934 32.6191V37.4495H195.104V32.6191H199.934ZM221.416 36.3651C220.201 35.9379 219.001 35.7243 217.818 35.7243C216.668 35.7243 215.748 36.0365 215.058 36.6609C214.401 37.2852 214.072 38.4189 214.072 40.0619V42.7728H221.761V46.6174H214.072V67.9107H209.587V46.6174H205.003V42.7728H209.587V39.914C209.587 37.0552 210.31 34.9357 211.756 33.5556C213.234 32.1426 214.894 31.4361 216.734 31.4361C218.607 31.4361 220.283 31.8469 221.761 32.6684V36.3651H221.416ZM248.619 42.7728L233.487 79.2475H228.952L233.191 68.3051L222.791 42.7728H227.621L235.508 62.6367H235.705L243.788 42.7728H248.619Z" fill="#686D76"/>
</g>
<defs>
<clipPath id="clip0_0_3">
<rect width="270" height="81.8763" fill="white"/>
</clipPath>
</defs>
</svg>
